<?xml version="1.0" encoding="UTF-8"?>
<svg id="Layer_1" data-name="Layer 1" xmlns="http://www.w3.org/2000/svg" viewBox="0 0 209.81 2.8">
  <defs>
    <style>
      .cls-1 {
        stroke-width: 0px;
      }
    </style>
  </defs>
  <path class="cls-1" d="M0,1.35c.74-.04,1.49-.11,2.23-.13,4.52-.11,9.03-.24,13.55-.32,7.09-.12,14.18-.21,21.26-.29,6.31-.08,12.61-.14,18.92-.19,3.65-.03,7.31-.05,10.96-.08,4-.03,7.99-.09,11.99-.12,3.65-.03,7.3-.03,10.95-.06,3.43-.02,6.85-.07,10.28-.09,1.26-.01,2.51,0,3.77,0,1.18-.01,2.36-.07,3.54-.06,2.57.01,5.14.05,7.7.07,1.88.01,3.76,0,5.64.02,2.58.02,5.17.05,7.75.07,1.96.01,3.92.01,5.87.03,3.51.03,7.02.07,10.54.1,3.35.03,6.71.06,10.06.09,5.32.05,10.64.09,15.95.16,8.23.1,16.47.2,24.7.33,4.19.07,8.37.22,12.56.33.52.01,1.03.07,1.56.2-.17.02-.33.06-.5.07-4.69.14-9.38.31-14.06.39-7.39.13-14.77.22-22.16.3-6.34.07-12.68.13-19.02.19-3.54.03-7.09.06-10.63.09-3.37.03-6.74.08-10.11.1-3.82.03-7.65.04-11.47.07-4.31.03-8.61.07-12.92.11-1.04,0-2.07,0-3.11,0-1.63.02-3.26.07-4.89.06-3.21-.01-6.42-.06-9.64-.09-3.47-.03-6.95-.05-10.42-.07-2.13-.02-4.27-.05-6.4-.06-3.09-.02-6.17-.04-9.26-.06-3.94-.03-7.87-.06-11.81-.09-3.75-.03-7.5-.06-11.25-.11-8.23-.11-16.46-.2-24.69-.34-5.4-.09-10.79-.25-16.19-.39-.42-.01-.85-.06-1.27-.1,0-.04-.01-.09-.02-.13Z"/>
</svg>